<?xml version="1.0" standalone="no"?>
<!DOCTYPE svg PUBLIC "-//W3C//DTD SVG 20010904//EN"
 "http://www.w3.org/TR/2001/REC-SVG-20010904/DTD/svg10.dtd">
<svg version="1.0" xmlns="http://www.w3.org/2000/svg"
 width="254.000000pt" height="198.000000pt" viewBox="0 0 254.000000 198.000000"
 preserveAspectRatio="xMidYMid meet">

<g transform="translate(0.000000,198.000000) scale(0.100000,-0.100000)"
fill="#000000" stroke="none">
<path d="M1025 1556 l-230 -133 0 -273 0 -274 230 -133 c127 -73 235 -132 240
-132 6 0 114 60 240 133 l230 134 0 272 0 272 -65 37 c-36 21 -140 81 -232
134 -92 53 -171 97 -175 97 -5 0 -111 -60 -238 -134z m498 -57 l177 -102 0
-246 0 -247 -67 -39 c-38 -21 -133 -77 -213 -123 -80 -46 -149 -84 -155 -85
-5 0 -66 33 -135 73 -69 39 -164 94 -212 122 l-88 49 0 249 0 249 123 69 c67
39 165 95 217 125 l95 55 40 -24 c22 -13 120 -70 218 -125z"/>
<path d="M1180 350 c0 -47 -11 -63 -25 -40 -11 18 -45 11 -70 -15 -32 -31 -34
-86 -5 -115 22 -22 74 -27 86 -9 4 8 9 7 15 -2 5 -8 9 36 9 109 0 67 -2 122
-5 122 -3 0 -5 -22 -5 -50z m-12 -62 c21 -21 15 -85 -10 -102 -29 -20 -34 -20
-58 4 -24 24 -26 67 -3 92 18 21 53 24 71 6z"/>
<path d="M630 360 c-38 -38 -19 -82 42 -95 43 -9 58 -22 58 -50 0 -27 -17 -35
-76 -35 -28 0 -43 -4 -39 -10 10 -16 88 -12 113 6 14 10 22 26 22 44 0 32 -7
38 -64 60 -21 8 -44 23 -50 32 -17 28 15 53 64 51 23 -1 38 2 35 8 -11 17 -84
10 -105 -11z"/>
<path d="M810 270 c0 -67 4 -110 10 -110 6 0 10 43 10 110 0 67 -4 110 -10
110 -6 0 -10 -43 -10 -110z"/>
<path d="M1580 340 c0 -10 -8 -24 -17 -29 -17 -10 -17 -10 -1 -11 14 0 18 -12
20 -67 l3 -68 33 -3 c19 -2 32 1 32 8 0 6 -4 9 -9 6 -5 -4 -16 -3 -25 0 -12 5
-16 20 -16 64 0 56 1 59 28 63 l27 4 -27 2 c-23 1 -28 6 -28 26 0 14 -4 25
-10 25 -5 0 -10 -9 -10 -20z"/>
<path d="M934 309 c-3 -6 -15 -9 -25 -6 -17 5 -19 -1 -19 -69 0 -43 4 -74 10
-74 6 0 10 26 10 59 0 64 13 85 52 79 21 -3 23 -9 26 -70 4 -90 22 -88 22 2 0
58 -3 71 -19 80 -25 13 -48 13 -57 -1z"/>
<path d="M1436 301 c-25 -27 -12 -59 27 -69 21 -5 33 -15 35 -29 4 -24 -26
-38 -58 -28 -11 4 -20 2 -20 -4 0 -16 76 -13 90 3 21 27 8 58 -30 71 -51 17
-48 48 5 55 30 4 35 7 22 13 -30 12 -53 8 -71 -12z"/>
<path d="M1731 304 c-19 -14 -25 -14 -32 -3 -5 9 -9 -15 -9 -63 0 -46 4 -78
10 -78 6 0 10 27 10 61 0 58 1 61 30 72 17 6 30 15 30 19 0 12 -13 9 -39 -8z"/>
<path d="M1250 257 c0 -68 19 -97 64 -97 19 0 39 7 47 16 17 20 26 134 10 134
-7 0 -11 -21 -11 -53 0 -40 -5 -58 -18 -70 -41 -37 -72 -7 -72 69 0 30 -4 54
-10 54 -5 0 -10 -24 -10 -53z"/>
<path d="M1796 288 c4 -13 17 -45 29 -73 19 -44 20 -54 9 -80 -14 -32 -18 -63
-7 -52 15 15 101 227 92 227 -6 0 -22 -28 -37 -61 l-28 -62 -24 62 c-14 33
-28 61 -33 61 -5 0 -5 -10 -1 -22z"/>
</g>
</svg>
